<svg data-v-423bf9ae="" xmlns="http://www.w3.org/2000/svg" viewBox="0 0 241.62011910602638 60" class="font"><!----><!----><!----><g data-v-423bf9ae="" id="2e40a7a4-a9c9-47cd-a513-28821ec0931c" fill="black" transform="matrix(5.045314725108417,0,0,5.045314725108417,-9.59263189770354e-7,-11.604223865588587)"><path d="M3.71 13.06L3.71 13.06L7.02 13.16L7.02 13.16Q7.53 13.16 8.33 12.80L8.33 12.80L8.33 12.80Q7.64 13.66 6.64 13.97L6.64 13.97L6.64 13.97Q6.30 14.08 5.98 14.08L5.98 14.08L0 14.08L0 14.08Q1.31 12.96 3.29 9.80L3.29 9.80L3.29 9.80Q3.57 9.35 3.77 9.04L3.77 9.04L3.77 9.04Q3.96 8.72 4.16 8.39L4.16 8.39L4.16 8.39Q4.35 8.07 4.57 7.71L4.57 7.71L4.57 7.71Q4.79 7.35 5.03 6.98L5.03 6.98L5.03 6.98Q5.26 6.61 5.50 6.28L5.50 6.28L5.50 6.28Q6.01 5.52 6.38 5.18L6.38 5.18L6.38 5.18Q5.90 5.24 5.18 5.24L5.18 5.24L1.88 5.13L1.88 5.13Q1.16 5.13 0.66 5.18L0.66 5.18L0.66 5.18Q0.76 5.11 0.94 4.96L0.94 4.96L0.94 4.96Q1.12 4.81 1.32 4.66L1.32 4.66L1.32 4.66Q1.81 4.29 2.05 4.24L2.05 4.24L2.05 4.24Q2.29 4.20 2.60 4.20L2.60 4.20L3.21 4.20L6.51 4.31L6.51 4.31Q7.23 4.31 7.72 4.25L7.72 4.25L7.72 4.25Q7.23 4.69 6.39 6.05L6.39 6.05L6.39 6.05Q5.95 6.74 5.52 7.43L5.52 7.43L5.52 7.43Q5.09 8.11 4.69 8.75L4.69 8.75L4.69 8.75Q4.29 9.39 3.91 9.99L3.91 9.99L3.91 9.99Q3.54 10.58 3.13 11.15L3.13 11.15L3.13 11.15Q2.21 12.43 1.26 13.23L1.26 13.23L1.26 13.23Q2.48 13.06 3.71 13.06ZM13.64 9.82L13.64 11.66L13.64 11.66Q13.64 12.46 13.16 13.16L13.16 13.16L15.35 13.16L15.35 13.16Q15.26 13.17 14.90 13.49L14.90 13.49L14.90 13.49Q14.21 14.08 14.03 14.08L14.03 14.08L11.64 14.08L11.64 14.08Q12.33 13.37 12.33 12.33L12.33 12.33L12.33 10.60L12.33 10.60Q12.33 9.93 11.55 8.32L11.55 8.32L11.55 8.32Q10.73 6.64 9.85 5.69L9.85 5.69L9.85 5.69Q9.19 4.97 8.70 4.97L8.70 4.97L8.70 4.97Q8.38 4.97 7.87 5.30L7.87 5.30L7.87 5.30Q8.94 4.11 9.98 4.11L9.98 4.11L9.98 4.11Q10.56 4.11 11.01 4.63L11.01 4.63L11.01 4.63Q12.02 5.82 12.93 7.72L12.93 7.72L12.93 7.72Q13.35 8.63 13.55 9.32L13.55 9.32L13.55 9.32Q14.85 7.63 15.20 6.51L15.20 6.51L15.20 6.51Q15.29 6.23 15.29 6.01L15.29 6.01L15.29 6.01Q15.29 5.80 15.23 5.61L15.23 5.61L15.23 5.61Q15.18 5.43 15.06 5.29L15.06 5.29L15.06 5.29Q14.82 5.00 14.40 5.00L14.40 5.00L14.40 5.00Q14.19 5.00 14.03 5.05L14.03 5.05L14.03 5.05Q14.18 5.01 14.35 4.85L14.35 4.85L14.35 4.85Q14.51 4.69 14.70 4.52L14.70 4.52L14.70 4.52Q15.22 4.07 15.66 4.07L15.66 4.07L15.66 4.07Q16.10 4.07 16.35 4.32L16.35 4.32L16.35 4.32Q16.60 4.56 16.60 4.93L16.60 4.93L16.60 4.93Q16.60 5.30 16.44 5.72L16.44 5.72L16.44 5.72Q16.27 6.14 16.01 6.59L16.01 6.59L16.01 6.59Q15.74 7.05 15.41 7.52L15.41 7.52L15.41 7.52Q15.08 7.98 14.75 8.42L14.75 8.42L14.75 8.42Q14.42 8.85 14.13 9.21L14.13 9.21L14.13 9.21Q13.83 9.58 13.64 9.82L13.64 9.82ZM23.99 5.17L20.41 5.17L20.41 5.17Q21.55 4.25 21.74 4.25L21.74 4.25L29.45 4.25L29.45 4.25Q29.36 4.26 29.03 4.55L29.03 4.55L29.03 4.55Q28.70 4.83 28.57 4.94L28.57 4.94L28.57 4.94Q28.26 5.17 28.12 5.17L28.12 5.17L25.32 5.17L25.32 11.43L25.32 11.43Q25.32 12.26 25.04 12.80L25.04 12.80L25.04 12.80Q24.92 13.03 24.77 13.15L24.77 13.15L27.02 13.15L27.02 13.15Q26.93 13.17 26.60 13.45L26.60 13.45L26.60 13.45Q26.27 13.74 26.14 13.84L26.14 13.84L26.14 13.84Q25.83 14.08 25.69 14.08L25.69 14.08L23.31 14.08L23.31 14.08Q23.72 13.71 23.82 13.46L23.82 13.46L23.82 13.46Q23.99 13.06 23.99 12.45L23.99 12.45L23.99 5.17ZM33.52 12.82L33.52 12.82L33.52 12.82Q32.59 13.86 31.20 14.12L31.20 14.12L31.20 14.12Q30.88 14.18 30.41 14.18L30.41 14.18L30.41 14.18Q29.93 14.18 29.52 13.91L29.52 13.91L29.52 13.91Q29.10 13.65 28.83 13.23L28.83 13.23L28.83 13.23Q28.33 12.43 28.33 11.27L28.33 11.27L28.33 11.27Q28.33 10.50 28.92 9.57L28.92 9.57L28.92 9.57Q29.49 8.65 30.32 8.04L30.32 8.04L30.32 8.04Q31.21 7.38 32.00 7.38L32.00 7.38L32.00 7.38Q32.41 7.38 32.69 7.68L32.69 7.68L32.69 7.68Q32.95 7.98 32.95 8.35L32.95 8.35L32.95 8.35Q32.95 8.73 32.79 9.05L32.79 9.05L32.79 9.05Q32.62 9.37 32.36 9.67L32.36 9.67L32.36 9.67Q32.09 9.97 31.76 10.24L31.76 10.24L31.76 10.24Q31.42 10.52 31.06 10.76L31.06 10.76L31.06 10.76Q30.56 11.10 29.80 11.53L29.80 11.53L29.80 11.53Q30.02 12.36 30.58 12.81L30.58 12.81L30.58 12.81Q31.13 13.25 32.01 13.25L32.01 13.25L32.01 13.25Q32.74 13.25 33.52 12.82ZM31.46 10.08L31.46 10.08L31.46 10.08Q31.64 9.78 31.64 9.50L31.64 9.50L31.64 9.50Q31.64 9.22 31.58 9.03L31.58 9.03L31.58 9.03Q31.52 8.83 31.40 8.68L31.40 8.68L31.40 8.68Q31.14 8.34 30.71 8.34L30.71 8.34L30.71 8.34Q29.67 8.34 29.67 10.46L29.67 10.46L29.67 10.46Q29.67 10.83 29.74 11.20L29.74 11.20L29.74 11.20Q30.94 10.87 31.46 10.08ZM38.70 8.79L38.70 8.79L38.70 8.79Q38.83 8.65 38.83 8.59L38.83 8.59L38.83 8.59Q38.83 8.52 38.74 8.46L38.74 8.46L38.74 8.46Q38.65 8.39 38.50 8.34L38.50 8.34L38.50 8.34Q38.36 8.29 38.18 8.25L38.18 8.25L38.18 8.25Q38.00 8.20 37.84 8.18L37.84 8.18L37.84 8.18Q37.49 8.11 37.17 8.11L37.17 8.11L37.17 8.11Q36.85 8.11 36.51 8.30L36.51 8.30L36.51 8.30Q36.18 8.50 35.98 8.82L35.98 8.82L35.98 8.82Q35.64 9.39 35.64 10.21L35.64 10.21L35.64 10.21Q35.64 11.03 35.81 11.56L35.81 11.56L35.81 11.56Q35.99 12.09 36.33 12.47L36.33 12.47L36.33 12.47Q37.05 13.26 38.36 13.26L38.36 13.26L38.36 13.26Q39.19 13.26 39.93 12.85L39.93 12.85L39.93 12.85Q39.07 13.78 37.75 14.10L37.75 14.10L37.75 14.10Q37.33 14.19 36.83 14.19L36.83 14.19L36.83 14.19Q36.32 14.19 35.83 13.98L35.83 13.98L35.83 13.98Q35.33 13.77 34.99 13.39L34.99 13.39L34.99 13.39Q34.29 12.62 34.29 11.39L34.29 11.39L34.29 11.39Q34.29 10.39 34.98 9.38L34.98 9.38L34.98 9.38Q36.00 7.90 37.67 7.37L37.67 7.37L37.67 7.37Q38.19 7.20 38.61 7.20L38.61 7.20L38.61 7.20Q39.61 7.20 40.10 7.57L40.10 7.57L40.10 7.57Q40.15 7.61 40.15 7.68L40.15 7.68L40.15 7.68Q40.15 7.92 39.16 8.57L39.16 8.57L39.16 8.57Q38.80 8.79 38.70 8.79ZM42.64 10.53L42.64 12.59L42.64 12.59Q42.64 13.28 43.04 13.28L43.04 13.28L43.04 13.28Q43.18 13.28 43.46 13.16L43.46 13.16L43.46 13.16Q43.19 13.75 42.66 14.05L42.66 14.05L42.66 14.05Q42.38 14.21 42.08 14.19L42.08 14.19L42.08 14.19Q41.77 14.18 41.63 14.03L41.63 14.03L41.63 14.03Q41.50 13.88 41.43 13.67L41.43 13.67L41.43 13.67Q41.32 13.33 41.32 12.80L41.32 12.80L41.32 5.00L41.32 5.00Q41.32 4.27 41.06 4.03L41.06 4.03L41.06 4.03Q40.95 3.92 40.77 3.92L40.77 3.92L40.77 3.92Q40.48 3.92 40.13 4.02L40.13 4.02L40.13 4.02Q40.96 3.36 42.64 2.30L42.64 2.30L42.64 8.57L42.64 8.57Q43.50 7.82 44.39 7.55L44.39 7.55L44.39 7.55Q44.72 7.44 45.03 7.44L45.03 7.44L45.03 7.44Q45.34 7.44 45.61 7.54L45.61 7.54L45.61 7.54Q45.89 7.64 46.11 7.82L46.11 7.82L46.11 7.82Q46.59 8.22 46.59 8.83L46.59 8.83L46.59 12.30L46.59 12.30Q46.59 13.21 47.03 13.30L47.03 13.30L47.03 13.30Q47.15 13.33 47.29 13.33L47.29 13.33L47.29 13.33Q47.50 13.33 47.89 13.16L47.89 13.16L47.89 13.16Q47.32 13.88 46.57 14.11L46.57 14.11L46.57 14.11Q46.31 14.19 46.01 14.19L46.01 14.19L46.01 14.19Q45.71 14.19 45.55 14.05L45.55 14.05L45.55 14.05Q45.38 13.90 45.32 13.69L45.32 13.69L45.32 13.69Q45.26 13.47 45.26 13.21L45.26 13.21L45.26 10.14L45.26 10.14Q45.26 9.10 44.94 8.74L44.94 8.74L44.94 8.74Q44.65 8.39 43.85 8.39L43.85 8.39L43.85 8.39Q42.79 8.39 42.67 9.84L42.67 9.84L42.67 9.84Q42.64 10.21 42.64 10.53L42.64 10.53Z"></path></g><!----><!----></svg>