<svg data-v-423bf9ae="" xmlns="http://www.w3.org/2000/svg" viewBox="0 0 449 90" class="iconLeftSlogan"><!----><!----><!----><g data-v-423bf9ae="" id="e61553fa-9afb-4de9-a775-ec9b73231b80" fill="#000000" transform="matrix(5.830903811703725,0,0,5.830903811703725,138.68514108810058,-2.448980234671076)"><path d="M8.57 10.50L8.89 8.72L3.23 8.72L10.01 2.20L10.36 0.42L2.95 0.42L2.60 2.20L7.78 2.20L1.06 8.72L0.74 10.50ZM15.18 10.50L15.95 6.36L20.85 0.42L18.72 0.42L15.37 4.55L13.58 0.42L11.38 0.42L13.97 6.36L13.19 10.50ZM28.48 10.50L30.07 2.20L33.26 2.20L33.60 0.42L25.26 0.42L24.91 2.20L28.10 2.20L26.52 10.50ZM37.53 8.46L35.85 8.09C35.55 8.75 34.92 9.17 34.19 9.17C33.21 9.17 32.56 8.61 32.73 7.38L34.96 7.38C36.61 7.38 37.97 6.90 38.02 5.28C38.09 3.84 36.85 3.01 35.25 3.01C33.35 3.01 31.49 4.26 30.98 6.86C30.48 9.46 31.85 10.71 33.77 10.71C35.46 10.71 36.72 9.95 37.53 8.46ZM34.92 4.55C35.55 4.55 36.15 4.79 36.15 5.29C36.15 5.82 35.74 6.08 35.10 6.08L33.01 6.08C33.33 5.07 34.17 4.55 34.92 4.55ZM40.42 6.86C40.71 5.32 41.51 4.55 42.45 4.55C43.27 4.55 43.71 5.04 43.55 5.95L45.37 5.95C45.85 3.84 44.41 3.01 42.74 3.01C40.82 3.01 39.07 4.26 38.57 6.86C38.07 9.46 39.34 10.71 41.26 10.71C42.83 10.71 44.27 9.94 45.02 8.12L43.26 7.84C42.88 8.78 42.28 9.17 41.55 9.17C40.59 9.17 40.12 8.41 40.42 6.86ZM47.66 10.50L48.40 6.54C48.65 5.24 49.45 4.56 50.30 4.56C51.20 4.56 51.42 5.12 51.24 6.09L50.40 10.50L52.25 10.50L53.10 6.03C53.42 4.30 53.09 3.01 51.07 3.01C50.16 3.01 49.48 3.36 48.86 4.16L49.59 0.42L47.74 0.42L45.81 10.50Z"></path></g><defs data-v-423bf9ae=""><linearGradient data-v-423bf9ae="" gradientTransform="rotate(25)" id="6a325901-c2d1-416d-984f-fd1ae12adb10" x1="0%" y1="0%" x2="100%" y2="0%"><stop data-v-423bf9ae="" offset="0%" style="stop-color: rgb(18, 38, 99); stop-opacity: 1;"></stop><stop data-v-423bf9ae="" offset="100%" style="stop-color: rgb(93, 215, 173); stop-opacity: 1;"></stop></linearGradient></defs><g data-v-423bf9ae="" id="347f9ee5-cf28-4849-b0df-68eca90481d6" transform="matrix(1.5,0,0,1.5,-13,-30)" stroke="none" fill="url(#6a325901-c2d1-416d-984f-fd1ae12adb10)"><path d="M28 47h46v2H28zM37 53h28v2H37z"></path><path d="M85.564 80H14.435A5.441 5.441 0 0 1 9 74.564V25.436A5.441 5.441 0 0 1 14.435 20h71.129A5.441 5.441 0 0 1 91 25.436v49.129A5.441 5.441 0 0 1 85.564 80zM14.435 22A3.44 3.44 0 0 0 11 25.436v49.129A3.439 3.439 0 0 0 14.435 78h71.129A3.44 3.44 0 0 0 89 74.564V25.436A3.44 3.44 0 0 0 85.564 22H14.435z"></path><path d="M22.197 35.306c-2.385 0-4.326-1.94-4.326-4.326s1.941-4.327 4.326-4.327c2.386 0 4.327 1.941 4.327 4.327s-1.941 4.326-4.327 4.326zm0-6.654a2.329 2.329 0 0 0-2.326 2.327c0 1.282 1.043 2.326 2.326 2.326s2.327-1.044 2.327-2.326a2.331 2.331 0 0 0-2.327-2.327zM33.285 35.306c-2.385 0-4.326-1.94-4.326-4.326s1.941-4.327 4.326-4.327c2.386 0 4.327 1.941 4.327 4.327s-1.942 4.326-4.327 4.326zm0-6.654a2.329 2.329 0 0 0-2.326 2.327c0 1.282 1.043 2.326 2.326 2.326s2.327-1.044 2.327-2.326a2.331 2.331 0 0 0-2.327-2.327zM44.373 35.306c-2.386 0-4.327-1.94-4.327-4.326s1.941-4.327 4.327-4.327c2.385 0 4.326 1.941 4.326 4.327s-1.941 4.326-4.326 4.326zm0-6.654a2.33 2.33 0 0 0-2.327 2.327c0 1.282 1.044 2.326 2.327 2.326s2.326-1.044 2.326-2.326a2.329 2.329 0 0 0-2.326-2.327z"></path></g><!----><g data-v-423bf9ae="" id="0e10c88e-e702-4bae-b3ad-2463e0e8bf83" fill="#000000" transform="matrix(0.7556945722393946,0,0,0.7556945722393946,142.9244291686271,57.808484082488)"><path d="M0.10 3.51C0.10 3.75 0.21 3.77 0.38 3.77L0.88 3.77C0.97 3.77 3.11 10.99 3.14 11.07C3.49 12.14 3.60 12.99 3.91 12.99C4.13 12.99 4.23 12.67 4.51 12.26C4.66 12.05 4.76 12.01 4.90 11.66L6.89 6.45C6.96 6.29 6.99 6.20 7.01 6.20C7.04 6.20 7.07 6.29 7.11 6.45C7.71 8.51 8.39 11.03 8.40 11.07C8.75 12.14 8.86 12.99 9.17 12.99C9.39 12.99 9.49 12.67 9.77 12.26C9.93 12.05 10.02 12.01 10.16 11.66L13.26 4.06C13.36 3.81 13.36 3.77 13.72 3.77C13.96 3.77 14.01 3.71 14.01 3.53C14.01 3.32 13.97 3.26 13.78 3.26C13.64 3.26 13.33 3.30 12.82 3.30C12.08 3.30 11.58 3.26 11.38 3.26C11.20 3.26 11.10 3.28 11.10 3.51C11.10 3.75 11.21 3.77 11.38 3.77L12.29 3.77C12.36 3.77 12.38 3.81 12.38 3.95C12.38 4.63 10.78 8.72 10.07 10.63C9.93 10.99 9.86 11.17 9.81 11.17C9.76 11.17 9.70 10.99 9.58 10.60C9.49 10.30 8.57 7.18 8.04 5.22C7.99 5.05 7.78 4.17 7.78 3.85C7.78 3.81 7.78 3.79 7.80 3.77L8.68 3.77C8.86 3.77 8.96 3.75 8.96 3.56C8.96 3.32 8.92 3.26 8.72 3.26C8.40 3.26 7.46 3.30 7.04 3.30C6.62 3.30 5.71 3.26 5.49 3.26C5.31 3.26 5.21 3.28 5.21 3.51C5.21 3.75 5.32 3.77 5.49 3.77L6.29 3.77C6.33 3.77 6.51 4.27 6.66 4.83C6.72 5.05 6.76 5.15 6.76 5.25C6.76 5.31 6.76 5.38 6.72 5.49L4.72 10.60C4.62 10.82 4.59 10.95 4.55 10.95C4.51 10.95 4.48 10.84 4.40 10.60C4.31 10.32 3.30 7.27 2.70 5.22C2.66 5.08 2.34 3.96 2.32 3.85C2.34 3.77 2.38 3.77 2.42 3.77L3.12 3.77C3.35 3.77 3.42 3.75 3.42 3.56C3.42 3.32 3.37 3.26 3.18 3.26C2.86 3.26 2.14 3.30 1.72 3.30C1.30 3.30 0.60 3.26 0.38 3.26C0.20 3.26 0.10 3.28 0.10 3.51ZM21.63 12.39C21.63 12.63 21.66 12.68 21.85 12.68C22.18 12.68 23.14 12.64 23.56 12.64C23.98 12.64 28.49 12.68 28.81 12.68C28.94 12.68 29.09 12.66 29.09 12.49C29.09 12.07 29.13 11.23 29.13 10.53C29.13 10.39 28.98 10.39 28.85 10.39C28.74 10.39 28.62 10.39 28.62 10.51C28.60 11.06 28.60 11.41 28.57 11.76C28.55 12.01 28.55 12.04 28.45 12.04C28.29 12.04 25.66 12.08 24.16 12.08C24.09 12.08 24.05 10.11 24.01 8.26C24.01 8.06 24.05 8.09 24.19 8.09L26.47 8.09C27.17 8.09 27.20 8.20 27.20 8.30L27.20 9.00C27.20 9.14 27.38 9.14 27.50 9.14C27.59 9.14 27.72 9.13 27.72 9.02C27.72 8.83 27.69 8.33 27.69 7.83C27.69 7.32 27.72 6.83 27.72 6.71C27.72 6.59 27.58 6.58 27.48 6.58C27.37 6.58 27.20 6.59 27.20 6.72L27.20 7.45C27.20 7.62 26.75 7.63 26.47 7.63L24.14 7.63C24.02 7.63 24.01 7.63 24.01 7.45C24.00 6.75 23.98 6.06 23.98 5.46C23.98 5.12 23.98 3.71 24.07 3.71C25.30 3.71 27.80 3.75 27.80 3.81C27.80 3.99 27.76 4.83 27.76 4.89C27.76 5.04 27.83 5.10 28.01 5.10C28.21 5.10 28.28 5.08 28.28 4.94C28.28 3.85 28.34 3.36 28.34 3.09C28.34 2.91 28.25 2.90 28.06 2.90C27.86 2.90 27.86 2.95 27.83 3.11C27.82 3.25 27.89 3.25 26.98 3.25C26.36 3.25 24.22 3.29 23.45 3.29C22.96 3.29 22.02 3.25 21.92 3.25C21.80 3.25 21.74 3.30 21.74 3.49C21.74 3.72 21.81 3.74 21.98 3.74L22.64 3.74C22.69 3.74 22.76 4.79 22.76 5.71C22.76 5.80 22.82 8.27 22.82 9.83L22.82 11.17C22.82 11.84 22.79 12.18 22.76 12.18L21.91 12.18C21.69 12.18 21.63 12.21 21.63 12.39ZM37.10 3.51C37.10 3.75 37.18 3.79 37.35 3.79L38.21 3.77C38.26 3.77 38.32 5.52 38.32 7.11L38.32 11.63C38.32 11.93 38.30 12.18 38.28 12.18L37.55 12.18C37.32 12.18 37.25 12.19 37.25 12.39C37.25 12.63 37.28 12.68 37.48 12.68C37.60 12.68 38.56 12.64 38.98 12.64C39.16 12.64 39.68 12.67 40.32 12.67C41.87 12.67 44.28 12.43 44.28 10.23C44.28 8.27 42.46 7.94 41.78 7.84C41.69 7.83 41.68 7.83 41.68 7.81C41.68 7.80 41.72 7.78 41.79 7.76C42.43 7.52 43.88 6.90 43.88 5.54C43.88 3.81 42.41 3.25 40.73 3.25C40.15 3.25 39.55 3.29 39.00 3.29C38.58 3.29 37.58 3.26 37.35 3.26C37.17 3.26 37.10 3.28 37.10 3.51ZM39.55 8.19C39.55 8.12 39.55 8.08 39.66 8.08L40.14 8.08C40.75 8.08 41.40 8.09 41.78 8.22C42.64 8.51 42.97 9.16 42.97 10.14C42.97 11.17 42.50 12.18 40.49 12.18L39.65 12.18C39.56 12.18 39.55 9.02 39.55 8.19ZM39.55 7.59L39.55 6.92C39.55 5.87 39.56 3.71 39.61 3.68C39.66 3.65 39.97 3.63 40.18 3.63C41.59 3.63 42.62 4.41 42.62 5.77C42.62 6.92 41.89 7.46 41.26 7.66C41.17 7.69 41.08 7.70 40.99 7.70C40.91 7.70 40.77 7.69 40.53 7.69L39.73 7.69C39.55 7.69 39.55 7.67 39.55 7.59ZM52.60 5.77C52.60 9.07 57.58 8.20 57.58 10.65C57.58 11.59 56.74 12.31 55.76 12.31C54.94 12.31 53.34 11.83 53.31 11.47L53.23 10.15C53.21 9.97 53.14 9.91 52.96 9.91L52.89 9.91C52.68 9.91 52.68 10.00 52.68 10.12C52.68 10.32 52.79 11.66 52.82 12.17C52.84 12.38 54.10 12.85 55.64 12.85C57.20 12.85 58.81 11.87 58.81 10.11C58.81 6.79 53.84 7.87 53.84 5.32C53.84 4.31 54.63 3.56 55.66 3.56C56.69 3.56 57.78 4.58 57.78 4.89C57.78 5.01 57.74 5.73 57.74 5.78C57.74 5.92 57.78 5.99 58.04 5.99C58.28 5.99 58.30 5.94 58.30 5.75C58.30 5.04 58.38 3.68 58.38 3.53C58.38 3.30 58.34 3.29 58.07 3.29C57.85 3.29 57.83 3.32 57.82 3.53C57.82 3.61 57.81 3.78 57.76 3.78C57.71 3.78 57.62 3.74 57.55 3.68C56.76 3.14 56.14 3.08 55.64 3.08C54.11 3.08 52.60 4.17 52.60 5.77ZM66.64 12.39C66.64 12.63 66.68 12.68 66.88 12.68C67.20 12.68 67.96 12.64 68.67 12.64C69.33 12.64 70.13 12.68 70.35 12.68C70.52 12.68 70.55 12.61 70.55 12.40C70.55 12.24 70.52 12.18 70.35 12.18L69.38 12.18C69.29 12.18 69.26 9.55 69.26 7.76L69.26 5.87C69.26 5.14 69.29 3.70 69.38 3.70L70.29 3.70C70.52 3.70 70.55 3.68 70.55 3.49C70.55 3.25 70.52 3.19 70.35 3.19C70.03 3.19 69.36 3.23 68.70 3.23C67.89 3.23 67.17 3.19 66.95 3.19C66.77 3.19 66.70 3.21 66.70 3.44C66.70 3.68 66.78 3.70 66.95 3.70L67.87 3.70C67.91 3.70 67.98 4.79 67.98 5.71L67.98 7.08C67.98 8.92 67.97 12.18 67.86 12.18L66.93 12.18C66.71 12.18 66.64 12.19 66.64 12.39ZM78.18 5.01C78.18 5.17 78.36 5.17 78.48 5.17C78.64 5.17 78.68 5.15 78.69 4.97L78.81 3.89C78.82 3.81 79.37 3.75 80.12 3.75L82.11 3.75C82.17 3.75 82.19 4.35 82.19 4.97C82.19 6.43 82.14 12.18 82.01 12.18L81.14 12.18C80.92 12.18 80.88 12.19 80.88 12.39C80.88 12.63 80.89 12.68 81.09 12.68C81.41 12.68 82.39 12.64 82.81 12.64C83.23 12.64 84.17 12.68 84.49 12.68C84.66 12.68 84.69 12.61 84.69 12.40C84.69 12.24 84.66 12.18 84.49 12.18L83.50 12.18C83.47 12.18 83.47 11.76 83.47 11.31C83.47 9.56 83.55 5.96 83.55 5.92C83.57 5.18 83.57 3.75 83.66 3.75L85.27 3.75C85.99 3.75 86.81 3.78 86.81 3.85C86.81 3.99 86.77 4.90 86.77 4.97C86.77 5.12 86.84 5.17 87.02 5.17C87.22 5.17 87.29 5.17 87.29 5.03C87.29 3.93 87.35 3.40 87.35 3.14C87.35 2.94 87.26 2.94 87.07 2.94C86.91 2.94 86.86 2.98 86.84 3.16C86.84 3.23 86.20 3.28 85.36 3.28L80.36 3.28C79.70 3.28 78.89 3.28 78.89 3.21L78.89 3.07C78.89 2.94 78.76 2.94 78.67 2.94C78.44 2.94 78.41 3.00 78.40 3.19C78.34 3.89 78.18 4.97 78.18 5.01ZM95.10 12.39C95.10 12.63 95.13 12.68 95.33 12.68C95.65 12.68 96.61 12.64 97.03 12.64C97.45 12.64 101.96 12.68 102.28 12.68C102.41 12.68 102.56 12.66 102.56 12.49C102.56 12.07 102.61 11.23 102.61 10.53C102.61 10.39 102.45 10.39 102.33 10.39C102.21 10.39 102.09 10.39 102.09 10.51C102.07 11.06 102.07 11.41 102.05 11.76C102.02 12.01 102.02 12.04 101.92 12.04C101.77 12.04 99.13 12.08 97.64 12.08C97.57 12.08 97.52 10.11 97.48 8.26C97.48 8.06 97.52 8.09 97.66 8.09L99.95 8.09C100.65 8.09 100.67 8.20 100.67 8.30L100.67 9.00C100.67 9.14 100.86 9.14 100.97 9.14C101.07 9.14 101.19 9.13 101.19 9.02C101.19 8.83 101.16 8.33 101.16 7.83C101.16 7.32 101.19 6.83 101.19 6.71C101.19 6.59 101.05 6.58 100.95 6.58C100.84 6.58 100.67 6.59 100.67 6.72L100.67 7.45C100.67 7.62 100.23 7.63 99.95 7.63L97.61 7.63C97.50 7.63 97.48 7.63 97.48 7.45C97.47 6.75 97.45 6.06 97.45 5.46C97.45 5.12 97.45 3.71 97.54 3.71C98.77 3.71 101.28 3.75 101.28 3.81C101.28 3.99 101.23 4.83 101.23 4.89C101.23 5.04 101.30 5.10 101.49 5.10C101.68 5.10 101.75 5.08 101.75 4.94C101.75 3.85 101.81 3.36 101.81 3.09C101.81 2.91 101.72 2.90 101.53 2.90C101.33 2.90 101.33 2.95 101.30 3.11C101.29 3.25 101.36 3.25 100.45 3.25C99.83 3.25 97.69 3.29 96.92 3.29C96.43 3.29 95.49 3.25 95.40 3.25C95.27 3.25 95.21 3.30 95.21 3.49C95.21 3.72 95.28 3.74 95.45 3.74L96.11 3.74C96.17 3.74 96.24 4.79 96.24 5.71C96.24 5.80 96.29 8.27 96.29 9.83L96.29 11.17C96.29 11.84 96.26 12.18 96.24 12.18L95.38 12.18C95.16 12.18 95.10 12.21 95.10 12.39ZM110.78 5.77C110.78 9.07 115.77 8.20 115.77 10.65C115.77 11.59 114.93 12.31 113.95 12.31C113.12 12.31 111.52 11.83 111.50 11.47L111.41 10.15C111.40 9.97 111.33 9.91 111.15 9.91L111.08 9.91C110.87 9.91 110.87 10.00 110.87 10.12C110.87 10.32 110.98 11.66 111.01 12.17C111.02 12.38 112.28 12.85 113.82 12.85C115.39 12.85 117.00 11.87 117.00 10.11C117.00 6.79 112.03 7.87 112.03 5.32C112.03 4.31 112.81 3.56 113.85 3.56C114.87 3.56 115.96 4.58 115.96 4.89C115.96 5.01 115.92 5.73 115.92 5.78C115.92 5.92 115.96 5.99 116.23 5.99C116.47 5.99 116.48 5.94 116.48 5.75C116.48 5.04 116.56 3.68 116.56 3.53C116.56 3.30 116.52 3.29 116.26 3.29C116.03 3.29 116.02 3.32 116.00 3.53C116.00 3.61 115.99 3.78 115.95 3.78C115.89 3.78 115.81 3.74 115.74 3.68C114.94 3.14 114.32 3.08 113.82 3.08C112.29 3.08 110.78 4.17 110.78 5.77ZM134.34 3.44C134.34 3.68 134.43 3.70 134.60 3.70L135.00 3.70C135.13 3.70 137.38 7.74 137.79 8.50C137.84 8.60 137.89 8.65 137.89 8.81C137.89 10.50 137.87 12.18 137.75 12.18L137.03 12.18C136.81 12.18 136.77 12.19 136.77 12.39C136.77 12.63 136.78 12.68 136.98 12.68C137.17 12.68 137.98 12.64 138.57 12.64C139.40 12.64 139.93 12.68 140.25 12.68C140.42 12.68 140.45 12.61 140.45 12.40C140.45 12.24 140.42 12.18 140.25 12.18L139.29 12.18C139.19 12.18 139.16 9.72 139.16 8.22C139.16 8.18 139.16 8.15 139.20 8.09C139.75 7.22 141.69 3.70 141.76 3.70L142.24 3.70C142.41 3.70 142.51 3.68 142.51 3.44C142.51 3.22 142.42 3.19 142.24 3.19C142.02 3.19 141.78 3.23 141.18 3.23C140.59 3.23 140.25 3.19 140.08 3.19C139.89 3.19 139.85 3.25 139.85 3.49C139.85 3.68 139.92 3.70 140.14 3.70L140.87 3.70C140.88 3.70 140.90 3.71 140.90 3.74C140.90 4.05 139.33 6.99 138.95 7.71C138.84 7.92 138.84 7.88 138.73 7.67C138.32 6.89 137.03 4.56 136.74 3.85C136.68 3.71 136.67 3.70 136.85 3.70L137.68 3.70C137.90 3.70 137.93 3.68 137.93 3.49C137.93 3.25 137.89 3.19 137.73 3.19C137.49 3.19 136.88 3.23 136.08 3.23C135.27 3.23 134.78 3.19 134.60 3.19C134.41 3.19 134.34 3.21 134.34 3.44ZM149.63 8.15C149.63 11.17 151.97 12.80 154.22 12.80C157.01 12.80 158.98 10.89 158.98 8.06C158.98 5.33 157.23 3.11 154.43 3.11C151.83 3.11 149.63 5.10 149.63 8.15ZM151.03 7.77C151.03 5.64 152.32 3.58 154.29 3.58C156.53 3.58 157.61 5.81 157.61 7.94C157.61 10.08 156.51 12.32 154.24 12.32C152.25 12.32 151.03 10.28 151.03 7.77ZM167.09 3.51C167.09 3.75 167.17 3.77 167.34 3.77L167.87 3.77C167.93 3.77 167.93 4.12 167.93 4.55C167.93 5.66 167.92 8.96 167.92 9.42C167.92 11.13 168.17 12.80 171.02 12.80C172.10 12.80 173.26 12.38 173.92 12.00C174.17 11.86 174.47 11.72 174.55 11.72C174.82 11.72 175.08 12.74 175.42 12.74C175.74 12.74 175.76 12.35 175.76 12.25C175.76 11.96 175.81 10.08 175.85 8.16C175.91 6.12 175.90 3.77 176.01 3.77L176.33 3.77C176.55 3.77 176.62 3.75 176.62 3.56C176.62 3.32 176.58 3.26 176.39 3.26C176.25 3.26 175.71 3.30 175.29 3.30C174.87 3.30 174.08 3.26 173.85 3.26C173.67 3.26 173.57 3.28 173.57 3.51C173.57 3.75 173.68 3.77 173.85 3.77L174.55 3.77C174.62 3.77 174.64 4.30 174.64 4.87L174.64 9.14C174.64 11.19 174.64 11.12 174.30 11.34C173.91 11.61 173.10 12.08 171.92 12.08C169.95 12.08 169.15 11.17 169.15 9.41C169.15 8.82 169.22 3.77 169.33 3.77L170.24 3.77C170.46 3.77 170.51 3.75 170.51 3.56C170.51 3.32 170.49 3.26 170.30 3.26C169.97 3.26 169.09 3.30 168.67 3.30C168.25 3.30 167.57 3.26 167.34 3.26C167.16 3.26 167.09 3.28 167.09 3.51ZM194.04 3.51C194.04 3.75 194.15 3.77 194.32 3.77L194.82 3.77C194.91 3.77 197.05 10.99 197.08 11.07C197.43 12.14 197.54 12.99 197.85 12.99C198.07 12.99 198.17 12.67 198.45 12.26C198.60 12.05 198.70 12.01 198.84 11.66L200.83 6.45C200.90 6.29 200.93 6.20 200.96 6.20C200.98 6.20 201.01 6.29 201.05 6.45C201.66 8.51 202.33 11.03 202.34 11.07C202.69 12.14 202.80 12.99 203.11 12.99C203.34 12.99 203.43 12.67 203.71 12.26C203.87 12.05 203.97 12.01 204.11 11.66L207.20 4.06C207.30 3.81 207.30 3.77 207.66 3.77C207.90 3.77 207.96 3.71 207.96 3.53C207.96 3.32 207.91 3.26 207.72 3.26C207.58 3.26 207.27 3.30 206.77 3.30C206.02 3.30 205.52 3.26 205.32 3.26C205.14 3.26 205.04 3.28 205.04 3.51C205.04 3.75 205.16 3.77 205.32 3.77L206.23 3.77C206.30 3.77 206.32 3.81 206.32 3.95C206.32 4.63 204.72 8.72 204.01 10.63C203.87 10.99 203.80 11.17 203.76 11.17C203.70 11.17 203.64 10.99 203.52 10.60C203.43 10.30 202.51 7.18 201.98 5.22C201.94 5.05 201.73 4.17 201.73 3.85C201.73 3.81 201.73 3.79 201.74 3.77L202.62 3.77C202.80 3.77 202.90 3.75 202.90 3.56C202.90 3.32 202.86 3.26 202.66 3.26C202.34 3.26 201.40 3.30 200.98 3.30C200.56 3.30 199.65 3.26 199.43 3.26C199.25 3.26 199.15 3.28 199.15 3.51C199.15 3.75 199.26 3.77 199.43 3.77L200.23 3.77C200.27 3.77 200.45 4.27 200.61 4.83C200.66 5.05 200.70 5.15 200.70 5.25C200.70 5.31 200.70 5.38 200.66 5.49L198.66 10.60C198.56 10.82 198.53 10.95 198.49 10.95C198.45 10.95 198.42 10.84 198.34 10.60C198.25 10.32 197.25 7.27 196.64 5.22C196.60 5.08 196.28 3.96 196.27 3.85C196.28 3.77 196.32 3.77 196.36 3.77L197.06 3.77C197.29 3.77 197.36 3.75 197.36 3.56C197.36 3.32 197.32 3.26 197.12 3.26C196.80 3.26 196.08 3.30 195.66 3.30C195.24 3.30 194.54 3.26 194.32 3.26C194.14 3.26 194.04 3.28 194.04 3.51ZM215.43 12.39C215.43 12.63 215.47 12.68 215.67 12.68C215.99 12.68 216.75 12.64 217.46 12.64C218.12 12.64 218.92 12.68 219.14 12.68C219.31 12.68 219.34 12.61 219.34 12.40C219.34 12.24 219.31 12.18 219.14 12.18L218.18 12.18C218.08 12.18 218.05 9.55 218.05 7.76L218.05 5.87C218.05 5.14 218.08 3.70 218.18 3.70L219.09 3.70C219.31 3.70 219.34 3.68 219.34 3.49C219.34 3.25 219.31 3.19 219.14 3.19C218.82 3.19 218.15 3.23 217.49 3.23C216.68 3.23 215.96 3.19 215.74 3.19C215.56 3.19 215.49 3.21 215.49 3.44C215.49 3.68 215.57 3.70 215.74 3.70L216.66 3.70C216.71 3.70 216.78 4.79 216.78 5.71L216.78 7.08C216.78 8.92 216.76 12.18 216.65 12.18L215.73 12.18C215.50 12.18 215.43 12.19 215.43 12.39ZM227.23 12.39C227.23 12.63 227.26 12.68 227.46 12.68C227.78 12.68 228.75 12.64 229.17 12.64C229.59 12.64 233.94 12.68 234.26 12.68C234.53 12.68 234.60 12.66 234.61 12.49C234.67 12.08 234.91 10.72 234.91 10.60C234.91 10.47 234.75 10.44 234.58 10.43C234.49 10.42 234.40 10.46 234.39 10.56L234.22 11.76C234.18 12.05 234.16 12.03 233.94 12.04C233.79 12.05 231.28 12.12 229.85 12.12C229.81 12.12 229.77 11.38 229.77 10.54L229.77 6.66C229.77 5.40 229.78 3.70 229.88 3.70L230.86 3.70C231.10 3.70 231.13 3.63 231.13 3.44C231.13 3.23 231.11 3.19 230.87 3.19C230.55 3.19 229.61 3.23 229.19 3.23C228.77 3.23 227.84 3.19 227.61 3.19C227.39 3.19 227.33 3.22 227.33 3.44C227.33 3.65 227.37 3.70 227.57 3.70L228.40 3.70C228.44 3.70 228.47 4.23 228.47 4.90L228.47 8.13C228.47 10.07 228.44 12.18 228.35 12.18L227.51 12.18C227.29 12.18 227.23 12.21 227.23 12.39ZM242.52 12.39C242.52 12.63 242.55 12.68 242.75 12.68C243.07 12.68 244.03 12.64 244.45 12.64C244.87 12.64 249.23 12.68 249.55 12.68C249.82 12.68 249.89 12.66 249.90 12.49C249.96 12.08 250.19 10.72 250.19 10.60C250.19 10.47 250.04 10.44 249.87 10.43C249.77 10.42 249.69 10.46 249.68 10.56L249.51 11.76C249.47 12.05 249.45 12.03 249.23 12.04C249.07 12.05 246.57 12.12 245.14 12.12C245.10 12.12 245.06 11.38 245.06 10.54L245.06 6.66C245.06 5.40 245.07 3.70 245.17 3.70L246.15 3.70C246.39 3.70 246.41 3.63 246.41 3.44C246.41 3.23 246.40 3.19 246.16 3.19C245.84 3.19 244.90 3.23 244.48 3.23C244.06 3.23 243.12 3.19 242.90 3.19C242.68 3.19 242.62 3.22 242.62 3.44C242.62 3.65 242.66 3.70 242.86 3.70L243.68 3.70C243.73 3.70 243.75 4.23 243.75 4.90L243.75 8.13C243.75 10.07 243.73 12.18 243.64 12.18L242.80 12.18C242.58 12.18 242.52 12.21 242.52 12.39ZM267.61 12.39C267.61 12.63 267.64 12.68 267.83 12.68C268.16 12.68 269.12 12.64 269.54 12.64C269.96 12.64 274.32 12.68 274.64 12.68C274.90 12.68 274.97 12.66 274.99 12.49C275.04 12.08 275.28 10.72 275.28 10.60C275.28 10.47 275.13 10.44 274.96 10.43C274.86 10.42 274.78 10.46 274.76 10.56L274.60 11.76C274.55 12.05 274.54 12.03 274.32 12.04C274.16 12.05 271.66 12.12 270.23 12.12C270.19 12.12 270.14 11.38 270.14 10.54L270.14 6.66C270.14 5.40 270.16 3.70 270.26 3.70L271.24 3.70C271.47 3.70 271.50 3.63 271.50 3.44C271.50 3.23 271.49 3.19 271.25 3.19C270.93 3.19 269.99 3.23 269.57 3.23C269.15 3.23 268.21 3.19 267.99 3.19C267.76 3.19 267.71 3.22 267.71 3.44C267.71 3.65 267.75 3.70 267.95 3.70L268.77 3.70C268.81 3.70 268.84 4.23 268.84 4.90L268.84 8.13C268.84 10.07 268.81 12.18 268.73 12.18L267.89 12.18C267.67 12.18 267.61 12.21 267.61 12.39ZM282.83 8.15C282.83 11.17 285.17 12.80 287.42 12.80C290.21 12.80 292.18 10.89 292.18 8.06C292.18 5.33 290.43 3.11 287.63 3.11C285.03 3.11 282.83 5.10 282.83 8.15ZM284.23 7.77C284.23 5.64 285.52 3.58 287.49 3.58C289.73 3.58 290.81 5.81 290.81 7.94C290.81 10.08 289.70 12.32 287.43 12.32C285.45 12.32 284.23 10.28 284.23 7.77ZM299.45 3.51C299.45 3.75 299.54 3.77 299.71 3.77L300.15 3.77C300.23 3.77 303.02 10.99 303.06 11.07C303.55 12.18 303.65 12.99 303.86 12.99C304.12 12.99 304.18 12.67 304.46 12.26C304.61 12.04 304.70 12.01 304.85 11.66L308.08 4.06C308.20 3.81 308.18 3.77 308.55 3.77C308.77 3.77 308.84 3.75 308.84 3.56C308.84 3.32 308.80 3.26 308.60 3.26C308.46 3.26 307.93 3.30 307.51 3.30C307.09 3.30 306.26 3.26 306.04 3.26C305.84 3.26 305.79 3.29 305.79 3.51C305.79 3.75 305.91 3.77 306.08 3.77L307.08 3.77C307.15 3.77 307.16 3.81 307.16 3.95C307.16 4.63 305.48 8.72 304.75 10.63C304.61 10.99 304.53 11.17 304.49 11.17C304.44 11.17 304.35 10.98 304.21 10.60C303.63 9.10 302.50 6.01 301.98 4.49C301.90 4.27 301.81 3.93 301.81 3.79L301.81 3.77L302.79 3.77C303.02 3.77 303.09 3.75 303.09 3.56C303.09 3.32 303.04 3.26 302.85 3.26C302.53 3.26 301.45 3.30 301.03 3.30C300.61 3.30 299.89 3.26 299.71 3.26C299.53 3.26 299.45 3.28 299.45 3.51ZM316.46 12.39C316.46 12.63 316.48 12.68 316.68 12.68C317.00 12.68 317.97 12.64 318.39 12.64C318.81 12.64 323.32 12.68 323.64 12.68C323.76 12.68 323.92 12.66 323.92 12.49C323.92 12.07 323.96 11.23 323.96 10.53C323.96 10.39 323.81 10.39 323.68 10.39C323.57 10.39 323.44 10.39 323.44 10.51C323.43 11.06 323.43 11.41 323.40 11.76C323.37 12.01 323.37 12.04 323.27 12.04C323.12 12.04 320.49 12.08 318.99 12.08C318.92 12.08 318.88 10.11 318.84 8.26C318.84 8.06 318.88 8.09 319.02 8.09L321.30 8.09C322.00 8.09 322.03 8.20 322.03 8.30L322.03 9.00C322.03 9.14 322.21 9.14 322.32 9.14C322.42 9.14 322.55 9.13 322.55 9.02C322.55 8.83 322.52 8.33 322.52 7.83C322.52 7.32 322.55 6.83 322.55 6.71C322.55 6.59 322.41 6.58 322.31 6.58C322.20 6.58 322.03 6.59 322.03 6.72L322.03 7.45C322.03 7.62 321.58 7.63 321.30 7.63L318.96 7.63C318.85 7.63 318.84 7.63 318.84 7.45C318.82 6.75 318.81 6.06 318.81 5.46C318.81 5.12 318.81 3.71 318.89 3.71C320.12 3.71 322.63 3.75 322.63 3.81C322.63 3.99 322.59 4.83 322.59 4.89C322.59 5.04 322.66 5.10 322.84 5.10C323.04 5.10 323.11 5.08 323.11 4.94C323.11 3.85 323.16 3.36 323.16 3.09C323.16 2.91 323.08 2.90 322.88 2.90C322.69 2.90 322.69 2.95 322.66 3.11C322.64 3.25 322.71 3.25 321.80 3.25C321.19 3.25 319.05 3.29 318.28 3.29C317.79 3.29 316.85 3.25 316.75 3.25C316.62 3.25 316.57 3.30 316.57 3.49C316.57 3.72 316.64 3.74 316.81 3.74L317.46 3.74C317.52 3.74 317.59 4.79 317.59 5.71C317.59 5.80 317.65 8.27 317.65 9.83L317.65 11.17C317.65 11.84 317.62 12.18 317.59 12.18L316.74 12.18C316.51 12.18 316.46 12.21 316.46 12.39Z"></path></g></svg>